<svg xmlns="http://www.w3.org/2000/svg" viewBox="0 0 627 668" role="img" aria-label="Vectorized blue monogram logo">
  <defs>
    <linearGradient id="blueGrad" x1="0" y1="0" x2="0" y2="1">
      <stop offset="0%" stop-color="#1f6cf0"/>
      <stop offset="100%" stop-color="#0a49b9"/>
    </linearGradient>
    <filter id="softEdge" x="-5%" y="-5%" width="110%" height="110%">
      <feDropShadow dx="0" dy="0" stdDeviation="1.2" flood-color="#ffffff" flood-opacity="0.65"/>
    </filter>
  </defs>
  <g fill="url(#blueGrad)" stroke="#dbe7ff" stroke-width="1.2" filter="url(#softEdge)" fill-rule="evenodd">
    <path d="M 526 47 L 498 53 L 494 57 L 482 62 L 458 90 L 456 102 L 461 120 L 463 157 L 461 183 L 455 209 L 451 213 L 443 236 L 430 258 L 396 296 L 389 300 L 383 307 L 383 312 L 396 325 L 398 330 L 406 336 L 411 345 L 423 358 L 441 391 L 452 419 L 459 464 L 456 543 L 460 560 L 475 589 L 481 593 L 486 601 L 515 617 L 525 619 L 604 618 L 604 615 L 587 605 L 574 593 L 573 587 L 568 582 L 563 570 L 561 557 L 560 421 L 558 406 L 560 395 L 559 293 L 555 212 L 555 114 L 558 98 L 561 96 L 562 87 L 566 79 L 571 75 L 571 72 L 582 62 L 592 57 L 597 57 L 597 52 L 584 48 Z"/><path d="M 37 32 L 34 33 L 35 39 L 53 48 L 66 62 L 76 80 L 81 99 L 82 552 L 80 568 L 70 592 L 53 609 L 35 618 L 34 621 L 105 622 L 136 615 L 151 607 L 169 590 L 181 575 L 183 568 L 174 528 L 175 499 L 186 453 L 201 423 L 208 415 L 211 407 L 216 404 L 217 399 L 244 372 L 264 357 L 265 352 L 234 321 L 219 300 L 217 293 L 210 286 L 193 249 L 186 223 L 183 199 L 183 169 L 186 155 L 185 111 L 177 85 L 166 67 L 152 52 L 128 39 L 98 33 Z"/><path d="M 324 26 L 312 28 L 279 46 L 240 82 L 223 109 L 212 135 L 208 161 L 210 211 L 220 242 L 226 252 L 226 255 L 222 256 L 222 258 L 227 258 L 232 262 L 247 287 L 262 305 L 351 389 L 364 404 L 368 412 L 367 416 L 361 417 L 247 416 L 229 439 L 227 448 L 230 450 L 387 451 L 392 457 L 396 487 L 396 499 L 394 502 L 361 503 L 360 500 L 357 500 L 354 503 L 347 503 L 346 500 L 316 501 L 315 503 L 255 503 L 230 501 L 211 502 L 209 505 L 210 530 L 217 537 L 386 536 L 388 538 L 381 564 L 370 579 L 364 592 L 360 594 L 357 600 L 352 603 L 331 627 L 327 628 L 317 638 L 317 641 L 330 638 L 358 622 L 359 619 L 365 617 L 387 599 L 414 563 L 426 538 L 431 521 L 435 492 L 435 473 L 429 440 L 417 409 L 397 373 L 365 335 L 297 274 L 292 266 L 286 263 L 281 256 L 282 252 L 392 255 L 406 241 L 414 225 L 406 222 L 377 220 L 262 218 L 254 215 L 249 202 L 246 187 L 246 170 L 248 167 L 426 171 L 431 166 L 429 139 L 426 137 L 377 134 L 255 132 L 252 130 L 260 103 L 264 100 L 275 79 L 295 55 L 319 35 Z"/>
  </g>
</svg>